<svg class="mx-auto h-auto w-32 py-3 sm:mx-0 lg:w-40 lg:py-5" viewBox="0 0 1033.583 318.543"><title>
        Logo is used for demonstration purposes only and should be replaced in customized versions.
      </title> <path d="M-26.912 496.696c-2.812-5.011-7.55-7.83-13.31-7.83-7.824 0-15.236 5.018-15.236 13.383 0 7.21 5.357 10.577 11.255 13.108l3.563 1.514c4.47 1.853 8.926 4.254 8.926 9.807 0 5.422-3.974 10.094-9.54 10.094-5.559 0-10.087-4.124-10.015-9.814l-6.525 1.37c1.102 8.307 7.62 14.486 15.999 14.486 9.259 0 16.534-6.727 16.534-16.136 0-8.64-5.488-12.691-12.835-15.568l-3.7-1.442c-3.23-1.24-7.21-3.36-7.21-7.42 0-4.521 4.529-7.34 8.646-7.34 3.915 0 6.382 1.651 8.3 4.88l5.148-3.092zm50.62-7.83c-14.825 0-27.104 12.15-27.104 26.974 0 15.373 12.142 26.974 27.104 26.974 14.955 0 27.11-11.601 27.11-26.974 0-14.824-12.286-26.974-27.11-26.974zm0 47.906c-11.184 0-20.651-9.128-20.651-20.932 0-11.392 8.508-20.932 20.65-20.932 12.15 0 20.659 9.54 20.659 20.932 0 11.804-9.474 20.932-20.658 20.932zm86.722-44.402c-3.909-2.401-8.515-3.504-13.043-3.504-15.236 0-27.516 11.947-27.516 27.248 0 14.962 12.221 26.7 26.968 26.7 4.528 0 9.61-1.312 13.59-3.648v-7.614c-3.849 3.432-8.716 5.357-13.793 5.357-11.53 0-20.318-9.677-20.318-21.004 0-11.457 8.854-21.134 20.455-21.134 4.868 0 9.944 1.788 13.657 5.083v-7.484zm35.782-2.401h-6.453v51.742h6.453V489.97zm32.227 51.742h27.789v-5.898h-21.343V516.25h20.723v-5.898h-20.723v-14.486h21.343v-5.898h-27.79v51.742zm68.113-45.844h12.286v-5.898h-31.02v5.898h12.287v45.844h6.447v-45.844zm61.38 32.873 5.898 12.971h6.935l-24.703-53.934-24.703 53.934h6.93l5.898-12.971h23.744zm-2.683-5.899h-18.387l9.2-20.932 9.187 20.932zm62.978-26.145c-2.805-5.011-7.549-7.83-13.31-7.83-7.817 0-15.23 5.018-15.23 13.383 0 7.21 5.351 10.577 11.25 13.108l3.569 1.514c4.463 1.853 8.92 4.254 8.92 9.807 0 5.422-3.981 10.094-9.54 10.094-5.56 0-10.088-4.124-10.016-9.814l-6.518 1.37c1.096 8.307 7.614 14.486 15.986 14.486 9.265 0 16.54-6.727 16.54-16.136 0-8.64-5.487-12.691-12.834-15.568l-3.706-1.442c-3.224-1.24-7.204-3.36-7.204-7.42 0-4.521 4.528-7.34 8.646-7.34 3.915 0 6.38 1.651 8.306 4.88l5.141-3.092zm65.425 45.015h27.783v-5.898h-21.343V516.25h20.73v-5.898h-20.73v-14.486h21.343v-5.898h-27.783v51.742zm53.974-51.742v32.735c0 11.393 7.073 20.11 18.942 20.11 11.868 0 18.941-8.717 18.941-20.11V489.97h-6.453v30.536c0 8.443-2.538 16.267-12.488 16.267s-12.489-7.824-12.489-16.267V489.97h-6.453zm82.461 29.238c7.478-.894 12.417-7.067 12.417-14.485 0-4.933-2.466-9.814-6.792-12.352-4.118-2.336-9.057-2.401-13.65-2.401h-7.824v51.742h6.453v-21.89h2.669l15.236 21.89h7.823l-16.332-22.504zm-9.396-23.477h1.716c6.382 0 14.061 1.168 14.061 9.272 0 8.228-7.138 9.461-13.728 9.461h-2.049V495.73zm72.726-6.864c-14.817 0-27.104 12.15-27.104 26.974 0 15.373 12.15 26.974 27.104 26.974 14.969 0 27.111-11.601 27.111-26.974 0-14.824-12.28-26.974-27.11-26.974zm0 47.906c-11.177 0-20.65-9.128-20.65-20.932 0-11.392 8.508-20.932 20.65-20.932 12.15 0 20.658 9.54 20.658 20.932 0 11.804-9.474 20.932-20.658 20.932zm58.248-16.75h3.7c9.813 0 18.12-4.182 18.12-15.092 0-9.474-4.94-14.961-20.86-14.961h-7.413v51.742h6.453v-21.689zm0-24.292h1.71c6.38 0 14.067.966 14.067 9.063 0 8.235-7.138 9.468-13.728 9.468h-2.049v-18.53zm75.65 33.01 5.898 12.971h6.93l-24.704-53.934-24.703 53.934h6.936l5.898-12.971h23.744zm-2.676-5.899h-18.387l9.187-20.932 9.2 20.932zm36.213 18.87h27.79v-5.898h-21.343V516.25h20.73v-5.898h-20.73v-14.486h21.343v-5.898h-27.79v51.742zm85.274-12.971 5.898 12.971h6.93l-24.704-53.934-24.703 53.934h6.936l5.899-12.971h23.744zm-2.682-5.899H865.05l9.2-20.932 9.194 20.932" style="fill:#6B7280;fill-opacity:1;fill-rule:nonzero;stroke:none" transform="translate(98.847 -259.733)"></path> <path d="m46.878 308.584-16.352 30.354c-3.817-3.04-8.045-5.448-12.69-7.243-4.64-1.788-9.507-2.701-14.57-2.747-4.04 0-7.915 1.05-11.64 3.152-3.72 2.094-5.717 5.24-5.971 9.435.091 2.903 1.135 5.278 3.145 7.144 1.996 1.86 4.404 3.354 7.197 4.477 2.792 1.135 5.428 2.055 7.895 2.753l10.485 3.001c11.256 2.897 20.508 7.484 27.757 13.755 7.25 6.27 10.995 15.399 11.242 27.385.105 7.608-1.05 14.961-3.458 22.067-2.407 7.105-6.707 13.265-12.893 18.472-6.29 4.959-13.324 8.573-21.101 10.838a83.427 83.427 0 0 1-23.77 3.347c-10.023-.046-19.758-1.56-29.2-4.542-9.447-2.994-18.23-7.203-26.366-12.632l17.61-31.56a77.4 77.4 0 0 0 16.822 11.014c6.094 2.93 12.638 4.45 19.659 4.56 5.05.033 9.579-1.174 13.585-3.614 3.993-2.447 6.114-6.297 6.335-11.556-.143-3.634-1.644-6.564-4.508-8.808-2.865-2.238-6.218-4.007-10.062-5.292-3.836-1.292-7.294-2.323-10.374-3.073-8.646-2.193-16.169-4.744-22.55-7.66-6.394-2.924-11.347-7.067-14.87-12.45-3.517-5.376-5.305-12.86-5.357-22.439.085-10.244 2.453-19.13 7.099-26.674 4.646-7.549 11.046-13.389 19.216-17.538 8.156-4.15 17.558-6.251 28.2-6.31 8.156.046 16.645 1.155 25.447 3.34 8.815 2.193 16.821 5.208 24.038 9.044M126.403 333.346v117.435h-41.1V333.346H51.334v-33.153h109.03v33.153h-33.961zm121.493 55.69 49.687 61.705h-51.155l-38.79-57.914h-.425v57.914H166.12V300.154h61.438c10.511-.02 19.888 1.605 28.122 4.868 8.24 3.275 14.746 8.325 19.51 15.163 4.769 6.845 7.203 15.608 7.3 26.309-.039 10.622-3 19.829-8.886 27.632-5.886 7.804-14.453 12.77-25.708 14.91zm-40.683-58.92v37.544h3.987c4.574.072 9.03-.339 13.356-1.226 4.333-.894 7.908-2.689 10.753-5.403 2.832-2.708 4.307-6.76 4.411-12.143-.104-5.39-1.579-9.435-4.41-12.143-2.846-2.707-6.421-4.508-10.754-5.402a61.505 61.505 0 0 0-13.356-1.227h-3.987" style="fill:#6B7280;fill-opacity:1;fill-rule:nonzero;stroke:none" transform="translate(98.847 -259.733)"></path> <path d="M396.617 424.616h-56.61l-10.91 26.165H285.5l60.798-150.588h44.872l59.552 150.588h-43.827l-10.277-26.165zm-11.112-29.956-16.769-47.938h-.424l-16.978 47.938h34.171zm109.683-6.44v32.357h5.246c4.228.104 8.861-.046 13.879-.463 5.037-.411 9.382-1.755 13.05-4.013 3.68-2.251 5.598-6.094 5.78-11.51-.17-5.925-2.088-10.029-5.774-12.319-3.674-2.297-8.098-3.576-13.272-3.843-5.167-.274-10.074-.346-14.707-.209h-4.202zm22.23 62.313h-63.323V299.945h58.71c14.25-.17 25.584 2.767 34.021 8.79 8.43 6.022 12.743 16.142 12.945 30.353.072 6.838-1.226 12.887-3.902 18.152-2.681 5.26-7.177 9.461-13.5 12.606v.398c11.256 1.507 19.464 5.631 24.638 12.358 5.168 6.727 7.726 15.386 7.654 25.982-.17 10.453-2.975 18.753-8.41 24.9-5.436 6.146-12.483 10.543-21.135 13.18-8.645 2.642-17.884 3.934-27.698 3.869zM495.188 329.9v29.16h4.62c5.696.182 10.76-.64 15.196-2.5 4.437-1.86 6.78-5.878 7.021-12.084-.085-4.515-1.331-7.816-3.72-9.904-2.4-2.082-5.408-3.4-9.043-3.954a64.784 64.784 0 0 0-11.138-.718h-2.936M683.94 424.616h-56.617L616.42 450.78h-43.605l60.798-150.588h44.878l59.546 150.588H694.21l-10.27-26.165zm-11.112-29.956-16.776-47.938h-.417l-16.991 47.938h34.184M817.732 366.688h81.567c.026 10.916-.965 21.239-2.962 30.954-1.99 9.729-6.394 19.242-13.18 28.566-7.856 10.23-17.363 17.728-28.52 22.491-11.158 4.763-23.386 7.119-36.696 7.067-16.684-.105-31.326-3.472-43.939-10.094-12.606-6.617-22.452-15.869-29.538-27.75-7.086-11.882-10.688-25.76-10.805-41.642.111-16.41 3.745-30.66 10.903-42.764 7.164-12.11 17.147-21.5 29.969-28.175 12.821-6.668 27.783-10.048 44.884-10.146 16.332-.006 30.576 3.497 42.719 10.505 12.142 7.014 21.662 17.559 28.566 31.633l-38.993 15.575c-2.871-7.282-7.197-13.076-13.004-17.37-5.8-4.293-12.86-6.492-21.18-6.596-9.017.163-16.58 2.57-22.674 7.223-6.094 4.645-10.688 10.577-13.774 17.78-3.093 7.203-4.639 14.714-4.645 22.537.013 7.928 1.618 15.464 4.808 22.602 3.191 7.132 7.882 12.965 14.074 17.5 6.2 4.528 13.807 6.877 22.844 7.027 9.076-.006 16.606-2.192 22.615-6.564 6.01-4.372 9.513-10.91 10.518-19.6h-33.557v-30.759" style="fill:#6B7280;fill-opacity:1;fill-rule:nonzero;stroke:none" transform="translate(98.847 -259.733)"></path> </svg>