<svg width="512" height="512" viewBox="0 0 512 512" fill="none" xmlns="http://www.w3.org/2000/svg">
<title>
        Logo is used for demonstration purposes only and should be replaced in customized versions.
      </title> <path stroke="#6B7280" stroke-miterlimit="3.864" stroke-width=".851" d="M.492 38.141h149.015M.492.911h149.015"></path> <path fill="#6B7280" d="M.545 33.488h27.878V5.565H.545v27.923Z"></path> <path fill="#d4d4d4" d="m2.176 22.319 12.286-14.24 12.286 14.24H18.65l-4.188-5.026-4.188 5.026H2.176ZM2.176 23.436h8.098v1.395h8.377v-1.395h8.097v5.584H2.176v-5.584Z"></path> <path fill="#6B7280" fill-rule="evenodd" d="M56.51 25.334c0-2.875 1.218-5.637 4.462-5.637 3.244 0 4.463 2.762 4.463 5.637 0 2.737-1.219 5.499-4.463 5.499-3.244 0-4.462-2.762-4.462-5.5Zm-3.612 0c0 4.738 2.99 8.534 8.074 8.534s8.074-3.796 8.074-8.534c0-4.878-2.99-8.673-8.074-8.673s-8.074 3.795-8.074 8.673ZM85.25 22.573c-.438-3.796-3.473-5.913-7.084-5.913-5.085 0-8.074 3.797-8.074 8.673 0 4.74 2.989 8.535 8.074 8.535 4.024 0 6.853-2.624 7.222-6.717H81.89c-.275 2.163-1.518 3.68-3.724 3.68-3.245 0-4.464-2.761-4.464-5.498 0-2.875 1.219-5.637 4.464-5.637 1.794 0 3.357 1.244 3.588 2.877h3.496ZM86.688 33.477h3.611V26.39h6.648v7.086h3.612V17.05h-3.612v6.304H90.3V17.05h-3.612v16.426ZM106.898 33.477h3.611V20.089h4.923V17.05h-13.457v3.038h4.923v13.388ZM116.847 33.477h3.611V17.05h-3.611v16.426ZM123.397 33.477h12.468v-3.035h-8.856v-4.027h7.959v-2.808h-7.959V20.09h8.672V17.05h-12.284v16.426Z" clip-rule="evenodd"></path> <path fill="#6B7280" d="M137.873 33.477h3.611V26.69h6.878v-2.807h-6.878V20.09h7.937V17.05h-11.548v16.426ZM37.73 33.49h3.608v-7.085h6.648v7.086h3.612V17.065h-3.612v6.303h-6.648v-6.303h-3.607v16.426Z"></path> </svg>