<svg class="mx-auto h-auto w-32 py-3 sm:mx-0 lg:w-40 lg:py-5" viewBox="0 0 150 39" fill="none"><title>
        Logo is used for demonstration purposes only and should be replaced in customized versions.
      </title> <g clip-path="url(#n)"> <path fill="#6B7280" d="M66.454 14.419v12.11s4.413 1.098 11.32 1.098c6.855 0 11.316-1.093 11.316-1.093V22.42s-4.793.943-11.364.943c-3.19 0-5.304-.375-6.44-.489 0-.992.003-3.792 0-4.793 1.272-.127 3.412-.493 6.488-.493 6.397.026 11.316.974 11.316.974v-4.146s-4.39-1.093-11.316-1.093c-6.977 0-11.32 1.097-11.32 1.097ZM94.464 27.356h4.955V13.55h-4.955v13.806ZM28.155 27.356h4.954V13.55h-4.954v13.806ZM56.17 27.351s-3.583-2.896-8.852-5.627c-1.468-.76-2.71-1.267-3.863-1.734v7.361h-4.797V13.576s4.06.786 8.669 3.176c5.269 2.73 8.847 5.378 8.847 5.378v-8.58h4.81V27.35H56.17ZM24.843 16.678l-12.29 11.045L.245 16.669l3.68-3.351s7.518 7.235 8.628 8.27c1.11-1.035 8.624-8.27 8.624-8.27l3.666 3.36ZM110.599 13.558h6.899c2.516-.004 4.098-1.284 4.679-1.896.586-.612 1.94-2.14 1.94-3.92V2.007c0-1.061.861-1.922 1.922-1.922h7.48c1.062 0 1.923.86 1.923 1.927v7.48a1.923 1.923 0 0 1-1.923 1.922h-5.736c-1.779 0-3.308 1.354-3.919 1.94-.612.58-1.892 2.162-1.897 4.68v6.898h-11.368V13.558Z"></path> <mask id="b" width="27" height="28" x="123" y="12" maskUnits="userSpaceOnUse" style="mask-type:luminance"> <path fill="#fff" d="M123.16 12.746h26.765v26.843H123.16V12.746Z"></path> </mask> <g mask="url(#b)"> <path fill="#6B7280" d="M149.755 19.605c0-1.826-.739-3.46-1.914-4.649-1.175-1.192-2.827-1.913-4.653-1.913-3.736 0-6.715 3.045-6.715 6.676 0 .664.288 1.922.288 2.46a5.18 5.18 0 0 1-5.177 5.177h-5.545a1.92 1.92 0 0 0-1.922 1.922v7.48c0 1.062.861 1.922 1.922 1.922h7.48c1.062 0 1.923-.86 1.923-1.922v-5.544a5.177 5.177 0 0 1 5.177-5.178c.537 0 1.796.289 2.455.289 3.635 0 6.681-2.98 6.681-6.72Z"></path> </g> </g> <defs> <clipPath id="n"> <path fill="#fff" d="M0 0h150v38.764H0z"></path> </clipPath> </defs> </svg>